<?xml version="1.0" encoding="UTF-8"?>
<svg id="svg74" width="1e3" height="214" version="1.1" viewBox="0 0 1e3 214" xmlns="http://www.w3.org/2000/svg"><g id="g72" transform="matrix(.99338 0 0 .89288 -.23841 6.4328)"><svg id="svg70" width="1e3" height="232" data-background-color="#ffffff" preserveAspectRatio="xMidYMid" version="1.1" viewBox="0 0 396 92"><g id="tight-bounds" transform="translate(.24 -.11296)"><svg id="svg65" width="395.52" height="92.226" version="1.1" viewBox="0 0 395.52 92.225918"><g id="g61"><svg id="svg59" width="395.52" height="92.226" version="1.1" viewBox="0 0 553.48159 129.05883"><g id="g5"><rect id="i$-0" class="rect-i$-0" x="138.76" width="5.3072" height="129.06" rx="1%" fill="currentColor" stroke="transparent" stroke-width="0" data-fill-palette-color="primary" data-palette-color="currentColor"/></g><g id="g28" transform="translate(157.96 .32104)"><svg id="svg26" width="395.52" height="128.42" version="1.1" viewBox="0 0 395.52 128.41674"><g id="textblocktransform"><svg id="textblock" width="395.52" height="128.42" version="1.1" viewBox="0 0 395.52 128.41674"><g id="g22"><svg id="svg20" width="395.52" height="128.42" version="1.1" viewBox="0 0 395.52 128.41674"><g id="g18"><svg id="svg16" width="395.52" height="128.42" data-palette-color="currentColor" version="1.1" viewBox="1.9 -32.5 221.45 68.85"><svg id="svg7" version="1.1"/><svg id="svg9" version="1.1"/><g id="text-0" class="undefined-text-0" fill="currentColor" font-family="none" font-size="none" font-weight="none" stroke-miterlimit="10" text-anchor="none" data-fill-palette-color="primary"><path id="path11" d="m13.7-32.45c2.533 0 5.067 0.533 7.6 1.6l-0.85 4.7-0.8 0.3c-1.067-0.767-2.167-1.367-3.3-1.8s-2.217-0.65-3.25-0.65c-1.633 0-2.933 0.45-3.9 1.35s-1.45 1.95-1.45 3.15c0 1.167 0.483 2.123 1.45 2.87 0.967 0.753 2.483 1.613 4.55 2.58 1.8 0.867 3.26 1.65 4.38 2.35 1.113 0.7 2.07 1.623 2.87 2.77 0.8 1.153 1.2 2.53 1.2 4.13 0 1.733-0.473 3.323-1.42 4.77-0.953 1.453-2.287 2.603-4 3.45-1.72 0.853-3.68 1.28-5.88 1.28-1.467 0-2.983-0.183-4.55-0.55s-3.05-0.9-4.45-1.6l0.65-5.1 0.65-0.3c1.233 1.167 2.593 2.04 4.08 2.62 1.48 0.587 2.853 0.88 4.12 0.88 1.733 0 3.117-0.46 4.15-1.38 1.033-0.913 1.55-2.003 1.55-3.27s-0.5-2.293-1.5-3.08c-1-0.78-2.533-1.653-4.6-2.62-1.767-0.833-3.2-1.593-4.3-2.28-1.1-0.68-2.04-1.587-2.82-2.72-0.787-1.133-1.18-2.5-1.18-4.1 0-1.733 0.467-3.317 1.4-4.75s2.233-2.56 3.9-3.38c1.667-0.813 3.567-1.22 5.7-1.22zm44.25 0.35 3.05 32.1h-4.6l-0.65-9.75-1.5-14.5h-0.35l-8.25 20.7h-4.1l-7.65-20.7h-0.45l-1.5 14.05-0.8 10.2h-4.35l3.35-32.1h5.9l1.5 4.8 6.15 17.05h0.4l6.5-17.2 1.5-4.65zm23.85 0 10.35 32.1h-5.3l-0.75-3.6-1.4-4.45-6.8-0.15-6.15 0.15-1.5 4.2-0.8 3.85h-5.15l11.45-32.1zm-3.55 19.95 5.15-0.1-4.6-14.8h-0.35l-5.25 14.8zm33.85-0.7c2.267 3.633 4.95 7.517 8.05 11.65l-0.05 0.6c-1.6 0.533-3.25 0.883-4.95 1.05l-0.6-0.4c-2.767-4.533-5-8.367-6.7-11.5h-5.45v1.35l0.25 10.1h-5.25l0.35-9.65-0.35-22.45 10.9-0.05c3.233 0 5.733 0.807 7.5 2.42 1.767 1.62 2.65 3.93 2.65 6.93 0 2.133-0.56 4.057-1.68 5.77-1.113 1.72-2.67 3.113-4.67 4.18zm-9.45-15.1-0.15 12.3 5.5 0.15c3.367-1.033 5.05-3.333 5.05-6.9 0-1.867-0.51-3.267-1.53-4.2-1.013-0.933-2.553-1.433-4.62-1.5zm40.9-4.15 0.3 0.45-0.3 3.9-5.8-0.3h-2.7l-0.25 17.95 0.25 10.1h-5.2l0.3-9.65-0.25-18.4h-2.7l-5.9 0.3-0.35-0.45 0.4-3.9zm21.85 27.8 0.35 0.45-0.4 3.85h-16.5l0.35-9.65-0.35-22.45h5.3l-0.3 22 0.1 5.8zm15.2-28.2c4.433 0 7.85 1.367 10.25 4.1s3.6 6.633 3.6 11.7c0 5.467-1.283 9.69-3.85 12.67-2.567 2.987-6.217 4.48-10.95 4.48-4.4 0-7.793-1.41-10.18-4.23-2.38-2.813-3.57-6.803-3.57-11.97 0-5.367 1.273-9.5 3.82-12.4 2.553-2.9 6.18-4.35 10.88-4.35zm-0.4 4.2c-3.033 0-5.293 0.973-6.78 2.92-1.48 1.953-2.22 4.963-2.22 9.03 0 4.433 0.727 7.673 2.18 9.72 1.447 2.053 3.687 3.08 6.72 3.08 3.067 0 5.333-0.983 6.8-2.95s2.2-5.033 2.2-9.2c0-4.367-0.727-7.56-2.18-9.58-1.447-2.013-3.687-3.02-6.72-3.02zm33.75-4.15c3.367 0 6.5 0.717 9.4 2.15l-1.05 4.8-0.55 0.05c-1.633-0.967-3.117-1.66-4.45-2.08-1.333-0.413-2.733-0.62-4.2-0.62-3.333 0-5.817 1.007-7.45 3.02-1.633 2.02-2.45 5.197-2.45 9.53 0 4.133 0.767 7.123 2.3 8.97 1.533 1.853 3.967 2.78 7.3 2.78 0.833 0 1.657-0.077 2.47-0.23 0.82-0.147 1.847-0.403 3.08-0.77l0.15-3.25-0.15-4.95 4.85-0.35-0.1 4.5 0.15 7.35c-4.133 1.3-7.717 1.95-10.75 1.95-4.9 0-8.567-1.36-11-4.08-2.433-2.713-3.65-6.603-3.65-11.67 0-5.533 1.39-9.767 4.17-12.7 2.787-2.933 6.763-4.4 11.93-4.4z" style="mix-blend-mode:normal" data-fill-palette-color="primary"/><path id="path13" transform="translate(0,35.95)" d="m13.7-32.45c2.533 0 5.067 0.533 7.6 1.6l-0.85 4.7-0.8 0.3c-1.067-0.767-2.167-1.367-3.3-1.8s-2.217-0.65-3.25-0.65c-1.633 0-2.933 0.45-3.9 1.35s-1.45 1.95-1.45 3.15c0 1.167 0.483 2.123 1.45 2.87 0.967 0.753 2.483 1.613 4.55 2.58 1.8 0.867 3.26 1.65 4.38 2.35 1.113 0.7 2.07 1.623 2.87 2.77 0.8 1.153 1.2 2.53 1.2 4.13 0 1.733-0.473 3.323-1.42 4.77-0.953 1.453-2.287 2.603-4 3.45-1.72 0.853-3.68 1.28-5.88 1.28-1.467 0-2.983-0.183-4.55-0.55s-3.05-0.9-4.45-1.6l0.65-5.1 0.65-0.3c1.233 1.167 2.593 2.04 4.08 2.62 1.48 0.587 2.853 0.88 4.12 0.88 1.733 0 3.117-0.46 4.15-1.38 1.033-0.913 1.55-2.003 1.55-3.27s-0.5-2.293-1.5-3.08c-1-0.78-2.533-1.653-4.6-2.62-1.767-0.833-3.2-1.593-4.3-2.28-1.1-0.68-2.04-1.587-2.82-2.72-0.787-1.133-1.18-2.5-1.18-4.1 0-1.733 0.467-3.317 1.4-4.75s2.233-2.56 3.9-3.38c1.667-0.813 3.567-1.22 5.7-1.22zm33.25 0.35 0.3 0.45-0.3 3.9-5.8-0.3h-2.7l-0.25 17.95 0.25 10.1h-5.2l0.3-9.65-0.25-18.4h-2.7l-5.9 0.3-0.35-0.45 0.4-3.9zm16.6 0 10.35 32.1h-5.3l-0.75-3.6-1.4-4.45-6.8-0.15-6.15 0.15-1.5 4.2-0.8 3.85h-5.15l11.45-32.1zm-3.55 19.95 5.15-0.1-4.6-14.8h-0.35l-5.25 14.8zm35.75-19.95 0.3 0.45-0.3 3.9-5.8-0.3h-2.7l-0.25 17.95 0.25 10.1h-5.2l0.3-9.65-0.25-18.4h-2.7l-5.9 0.3-0.35-0.45 0.4-3.9zm10.75 0-0.3 22 0.25 10.1h-5.25l0.35-9.65-0.35-22.45zm18.05-0.35c2.533 0 5.067 0.533 7.6 1.6l-0.85 4.7-0.8 0.3c-1.067-0.767-2.167-1.367-3.3-1.8s-2.217-0.65-3.25-0.65c-1.633 0-2.933 0.45-3.9 1.35s-1.45 1.95-1.45 3.15c0 1.167 0.483 2.123 1.45 2.87 0.967 0.753 2.483 1.613 4.55 2.58 1.8 0.867 3.26 1.65 4.38 2.35 1.113 0.7 2.07 1.623 2.87 2.77 0.8 1.153 1.2 2.53 1.2 4.13 0 1.733-0.473 3.323-1.42 4.77-0.953 1.453-2.287 2.603-4 3.45-1.72 0.853-3.68 1.28-5.88 1.28-1.467 0-2.983-0.183-4.55-0.55s-3.05-0.9-4.45-1.6l0.65-5.1 0.65-0.3c1.233 1.167 2.593 2.04 4.08 2.62 1.48 0.587 2.853 0.88 4.12 0.88 1.733 0 3.117-0.46 4.15-1.38 1.033-0.913 1.55-2.003 1.55-3.27s-0.5-2.293-1.5-3.08c-1-0.78-2.533-1.653-4.6-2.62-1.767-0.833-3.2-1.593-4.3-2.28-1.1-0.68-2.04-1.587-2.82-2.72-0.787-1.133-1.18-2.5-1.18-4.1 0-1.733 0.467-3.317 1.4-4.75s2.233-2.56 3.9-3.38c1.667-0.813 3.567-1.22 5.7-1.22zm33.25 0.35 0.3 0.45-0.3 3.9-5.8-0.3h-2.7l-0.25 17.95 0.25 10.1h-5.2l0.3-9.65-0.25-18.4h-2.7l-5.9 0.3-0.35-0.45 0.4-3.9zm10.75 0-0.3 22 0.25 10.1h-5.25l0.35-9.65-0.35-22.45zm20-0.35c3.267 0 6.15 0.733 8.65 2.2l-0.95 4.55-0.5 0.15c-2.233-1.733-4.7-2.6-7.4-2.6-2.933 0-5.173 0.99-6.72 2.97-1.553 1.987-2.33 4.947-2.33 8.88 0 4.033 0.783 7.1 2.35 9.2s3.8 3.15 6.7 3.15c1.4 0 2.79-0.24 4.17-0.72 1.387-0.487 2.663-1.163 3.83-2.03l0.5 0.3-0.4 4.7c-2.867 1.4-5.7 2.1-8.5 2.1-4.5 0-7.967-1.4-10.4-4.2s-3.65-6.783-3.65-11.95c0-5.333 1.273-9.45 3.82-12.35 2.553-2.9 6.163-4.35 10.83-4.35zm23.3 0c2.533 0 5.067 0.533 7.6 1.6l-0.85 4.7-0.8 0.3c-1.067-0.767-2.167-1.367-3.3-1.8s-2.217-0.65-3.25-0.65c-1.633 0-2.933 0.45-3.9 1.35s-1.45 1.95-1.45 3.15c0 1.167 0.483 2.123 1.45 2.87 0.967 0.753 2.483 1.613 4.55 2.58 1.8 0.867 3.257 1.65 4.37 2.35 1.12 0.7 2.08 1.623 2.88 2.77 0.8 1.153 1.2 2.53 1.2 4.13 0 1.733-0.477 3.323-1.43 4.77-0.947 1.453-2.28 2.603-4 3.45-1.713 0.853-3.67 1.28-5.87 1.28-1.467 0-2.983-0.183-4.55-0.55s-3.05-0.9-4.45-1.6l0.65-5.1 0.65-0.3c1.233 1.167 2.59 2.04 4.07 2.62 1.487 0.587 2.863 0.88 4.13 0.88 1.733 0 3.117-0.46 4.15-1.38 1.033-0.913 1.55-2.003 1.55-3.27s-0.5-2.293-1.5-3.08c-1-0.78-2.533-1.653-4.6-2.62-1.767-0.833-3.2-1.593-4.3-2.28-1.1-0.68-2.043-1.587-2.83-2.72-0.78-1.133-1.17-2.5-1.17-4.1 0-1.733 0.467-3.317 1.4-4.75s2.233-2.56 3.9-3.38c1.667-0.813 3.567-1.22 5.7-1.22z" style="mix-blend-mode:normal" data-fill-palette-color="primary"/></g></svg></g></svg></g></svg></g></svg></g><g id="g57" transform="translate(0 .32104)"><svg id="svg55" width="124.87" height="128.42" version="1.1" viewBox="0 0 124.86816 128.41674"><g id="g53"><svg id="icon-0" class="icon-icon-0" width="124.87" height="128.42" enable-background="new 0 0 100 100" data-fill-palette-color="accent" version="1.1" viewBox="6.243 5 87.513 90" xml:space="preserve"><g id="g50" fill="currentColor" data-fill-palette-color="accent"><rect id="rect30" x="44.882" y="47.958" width="37.808" height="3.55" data-fill-palette-color="accent"/><rect id="rect32" x="44.882" y="54.529" width="37.808" height="3.548" data-fill-palette-color="accent"/><rect id="rect34" x="44.882" y="61.805" width="37.808" height="3.551" data-fill-palette-color="accent"/><rect id="rect36" x="79.145" y="15.918" width="3.546" height="22.013" data-fill-palette-color="accent"/><rect id="rect38" x="71.157" y="24.438" width="3.546" height="13.493" data-fill-palette-color="accent"/><rect id="rect40" x="63.169" y="32.426" width="3.546" height="5.505" data-fill-palette-color="accent"/><path id="path42" d="m46.806 16.112v10.01h10.008c-0.505-5.31-4.699-9.498-10.008-10.01z" data-fill-palette-color="accent"/><path id="path44" d="m56.814 28.253h-10.543l-7.566 7.564c1.926 1.572 4.354 2.555 7.036 2.555 5.812 0 10.532-4.448 11.073-10.119z" data-fill-palette-color="accent"/><path id="path46" d="m44.675 16.112c-5.671 0.544-10.117 5.265-10.117 11.075 0 2.728 1.013 5.193 2.634 7.134l7.483-7.486z" data-fill-palette-color="accent"/><path id="path48" d="m85.586 5h-53.956c-4.502 0-8.169 3.667-8.169 8.169v37.813c0.031 0 0.059-4e-3 0.09-4e-3 0.495 0 0.982 0.031 1.466 0.074-0.484-0.04-0.971-0.074-1.466-0.074-9.558 0-17.308 7.748-17.308 17.307s7.75 17.308 17.308 17.308c0.494 0 0.979-0.033 1.462-0.074-0.482 0.044-0.968 0.074-1.462 0.074-0.031 0-0.059-4e-3 -0.09-4e-3v1.242c0 4.503 3.667 8.169 8.169 8.169h38.339c1.777 0 3.45-0.662 5.275-2.194 1.826-1.533 14.866-14.862 16.198-16.509 1.961-2.421 2.314-3.841 2.314-6.148v-56.98c1e-3 -4.502-3.663-8.169-8.17-8.169zm-59.224 46.227c-0.259-0.043-0.517-0.089-0.779-0.119 0.262 0.032 0.521 0.075 0.779 0.119zm-6.412 25.963-7.446-7.446 4.518-4.518 3.024 3.024 10.431-9.997 4.424 4.614zm5.637 8.273c0.246-0.029 0.488-0.072 0.731-0.111-0.242 0.04-0.485 0.08-0.731 0.111zm6.043 5.277c-2.155 0-3.909-1.754-3.909-3.909v-1.765c-6e-3 1e-3 -0.012 2e-3 -0.017 4e-3 7.549-1.863 13.154-8.661 13.154-16.785 0-8.129-5.61-14.929-13.165-16.787 9e-3 2e-3 0.019 4e-3 0.028 6e-3v-38.335c0-2.155 1.753-3.909 3.909-3.909h53.956c2.157 0 3.909 1.753 3.909 3.909l0.018 58.235c-0.097 0.406-0.431 1.016-0.938 1.766h-10.08c-3.333 0-6.04 2.704-6.04 6.038v10.538c-0.722 0.521-1.312 0.87-1.721 0.994z" data-fill-palette-color="accent"/></g></svg></g></svg></g></svg></g></svg><rect id="rect67" width="395.52" height="92.226" fill="none" visibility="hidden"/></g></svg></g></svg>
